<?xml version="1.0" standalone="no"?>
<!DOCTYPE svg PUBLIC "-//W3C//DTD SVG 20010904//EN"
 "http://www.w3.org/TR/2001/REC-SVG-20010904/DTD/svg10.dtd">
<svg version="1.0" xmlns="http://www.w3.org/2000/svg"
 width="225.000000pt" height="225.000000pt" viewBox="0 0 225.000000 225.000000"
 preserveAspectRatio="xMidYMid meet">

<g transform="translate(0.000000,225.000000) scale(0.100000,-0.100000)"
fill="#000000" stroke="none">
<path d="M432 2067 l-182 -182 0 -923 c0 -617 3 -930 10 -943 10 -19 29 -19
760 -19 411 0 755 3 764 6 14 6 16 113 16 1119 0 1006 -2 1113 -16 1119 -9 3
-275 6 -592 6 l-577 0 -183 -183z m1298 -942 l0 -1055 -705 0 -705 0 0 885 0
885 168 2 167 3 3 168 2 167 535 0 535 0 0 -1055z m-1140 890 l0 -105 -107 0
-108 0 105 105 c58 58 106 105 107 105 2 0 3 -47 3 -105z"/>
<path d="M744 1896 c-3 -8 -4 -23 -2 -33 3 -17 26 -18 388 -21 212 -1 395 0
408 3 26 6 31 49 6 59 -9 3 -191 6 -405 6 -330 0 -390 -2 -395 -14z"/>
<path d="M501 1551 c-7 -13 -7 -23 2 -35 11 -15 58 -16 526 -14 460 3 515 5
524 19 6 9 7 24 4 33 -6 14 -54 16 -526 16 -497 0 -521 -1 -530 -19z"/>
<path d="M512 1371 c-8 -4 -12 -19 -10 -32 l3 -24 219 -3 c153 -2 223 1 232 9
18 15 18 24 -2 43 -13 14 -47 16 -222 16 -114 0 -213 -4 -220 -9z"/>
<path d="M1100 1365 c-6 -8 -10 -22 -8 -32 3 -17 20 -18 233 -18 213 0 230 1
233 18 9 44 -8 47 -233 47 -174 0 -215 -3 -225 -15z"/>
<path d="M507 1173 c-13 -12 -7 -51 9 -57 9 -3 107 -6 219 -6 175 0 206 2 220
16 9 9 14 23 11 31 -3 8 -6 17 -6 19 0 7 -446 4 -453 -3z"/>
<path d="M1097 1173 c-14 -13 -6 -43 13 -53 12 -7 95 -9 226 -8 178 3 208 5
217 19 6 9 7 24 4 33 -6 14 -32 16 -230 16 -123 0 -227 -3 -230 -7z"/>
<path d="M501 971 c-7 -13 -7 -23 2 -35 11 -15 58 -16 526 -14 460 3 515 5
524 19 6 9 7 24 4 33 -6 14 -54 16 -526 16 -497 0 -521 -1 -530 -19z"/>
<path d="M510 790 c-12 -8 -16 -45 -18 -209 -2 -131 1 -207 8 -221 10 -19 19
-20 228 -20 156 0 221 3 230 12 8 8 12 55 12 144 0 138 -7 160 -47 152 -16 -3
-18 -17 -21 -121 l-3 -117 -164 0 -165 0 0 160 0 160 188 0 c133 0 192 4 200
12 16 16 15 23 -4 42 -13 14 -47 16 -222 16 -114 0 -214 -5 -222 -10z"/>
<path d="M1100 785 c-6 -8 -10 -22 -8 -32 3 -17 20 -18 233 -18 213 0 230 1
233 18 9 44 -8 47 -233 47 -174 0 -215 -3 -225 -15z"/>
<path d="M1093 584 c-3 -9 -2 -24 4 -33 9 -14 38 -16 228 -16 190 0 219 2 228
16 6 9 7 24 4 33 -6 14 -32 16 -232 16 -200 0 -226 -2 -232 -16z"/>
<path d="M1099 394 c-9 -11 -10 -20 -2 -32 8 -14 28 -17 108 -17 80 0 100 3
108 17 8 12 7 21 -2 32 -11 13 -34 16 -106 16 -72 0 -95 -3 -106 -16z"/>
<path d="M1890 2235 c-17 -21 -8 -50 18 -53 l22 -3 0 -1054 0 -1054 -22 -3
c-26 -3 -35 -32 -18 -53 19 -23 87 -19 100 4 14 27 14 2185 0 2212 -13 23 -81
27 -100 4z"/>
</g>
</svg>
