<?xml version="1.0" standalone="no"?>
<!DOCTYPE svg PUBLIC "-//W3C//DTD SVG 20010904//EN"
 "http://www.w3.org/TR/2001/REC-SVG-20010904/DTD/svg10.dtd">
<svg version="1.0" xmlns="http://www.w3.org/2000/svg"
 width="256.000000pt" height="256.000000pt" viewBox="0 0 256.000000 256.000000"
 preserveAspectRatio="xMidYMid meet">

<g transform="translate(0.000000,256.000000) scale(0.100000,-0.100000)"
fill="#000000" stroke="none">
<path d="M747 2315 c-76 -26 -107 -78 -107 -179 l0 -66 -164 0 c-153 0 -165
-1 -197 -23 -73 -49 -70 3 -67 -907 l3 -815 22 -31 c44 -62 -2 -59 1043 -59
1045 0 999 -3 1043 59 l22 31 3 815 c3 910 6 858 -67 907 -32 22 -44 23 -197
23 l-164 0 0 66 c0 102 -37 161 -116 183 -49 14 -102 -2 -143 -43 -35 -35 -36
-39 -40 -121 l-3 -85 -338 0 -338 0 -3 83 c-3 63 -9 88 -24 109 -40 54 -106
75 -168 53z m92 -101 c19 -25 21 -40 21 -191 0 -161 0 -164 -25 -188 -13 -14
-29 -25 -35 -25 -16 0 -53 21 -62 34 -4 6 -8 91 -8 188 0 172 1 177 22 192 33
23 64 19 87 -10z m969 10 c21 -15 22 -20 22 -192 0 -97 -4 -182 -8 -188 -9
-13 -46 -34 -62 -34 -6 0 -22 11 -35 25 -25 24 -25 27 -25 188 0 151 2 166 21
191 23 29 54 33 87 10z m-1168 -307 c0 -115 60 -187 155 -187 49 0 98 29 125
72 15 25 20 51 20 106 l0 72 340 0 340 0 0 -72 c0 -55 5 -81 20 -106 27 -43
76 -72 125 -72 95 0 155 72 155 187 l0 63 158 0 c110 0 162 -4 170 -12 8 -8
12 -62 12 -175 l0 -163 -980 0 -980 0 0 163 c0 113 4 167 12 175 8 8 60 12
170 12 l158 0 0 -63z m1620 -972 c0 -587 -1 -605 -19 -615 -27 -14 -1895 -14
-1922 0 -18 10 -19 28 -19 615 l0 605 980 0 980 0 0 -605z"/>
<path d="M1246 1248 c-8 -13 -31 -57 -52 -100 l-38 -76 -80 -11 c-131 -19
-135 -20 -142 -48 -6 -21 4 -36 69 -101 l76 -77 -16 -102 c-14 -84 -14 -104
-4 -117 20 -23 32 -21 131 29 l90 45 90 -45 c99 -50 111 -52 131 -29 10 13 10
33 -4 117 l-16 102 76 77 c64 65 75 80 69 101 -7 28 -15 31 -137 48 l-85 11
-50 97 c-54 105 -79 124 -108 79z m69 -188 c32 -66 35 -68 117 -77 32 -3 58
-8 58 -12 0 -3 -23 -29 -51 -57 l-51 -51 11 -58 c17 -91 18 -90 -46 -56 -31
17 -64 31 -73 31 -9 0 -42 -14 -73 -31 -64 -34 -63 -35 -46 56 l11 58 -51 51
c-28 28 -51 54 -51 57 0 4 26 9 58 12 82 9 85 11 117 77 16 33 32 60 35 60 3
0 19 -27 35 -60z"/>
</g>
</svg>
