<?xml version="1.0" standalone="no"?>
<!DOCTYPE svg PUBLIC "-//W3C//DTD SVG 20010904//EN"
 "http://www.w3.org/TR/2001/REC-SVG-20010904/DTD/svg10.dtd">
<svg version="1.0" xmlns="http://www.w3.org/2000/svg"
 width="225.000000pt" height="225.000000pt" viewBox="0 0 225.000000 225.000000"
 preserveAspectRatio="xMidYMid meet">

<g transform="translate(0.000000,225.000000) scale(0.100000,-0.100000)"
fill="#000000" stroke="none">
<path d="M145 1816 c-46 -20 -94 -64 -118 -110 -22 -41 -22 -43 -22 -581 0
-538 0 -540 22 -581 25 -47 73 -91 120 -111 26 -10 160 -13 683 -13 l651 0 49
25 c85 43 130 128 130 246 l0 58 254 -165 c158 -101 264 -164 280 -164 57 0
56 -17 56 705 0 722 1 705 -56 705 -16 0 -122 -63 -280 -164 l-254 -165 0 49
c0 124 -46 213 -130 256 l-45 23 -655 0 c-518 0 -661 -3 -685 -13z m1357 -134
l33 -32 0 -525 0 -525 -33 -32 -32 -33 -626 -3 c-687 -3 -671 -4 -707 57 -15
26 -17 76 -17 536 0 459 2 510 17 536 36 61 17 59 705 56 l628 -2 32 -33z
m628 -557 c0 -294 -3 -535 -6 -535 -3 0 -109 66 -235 147 l-229 148 0 240 0
240 228 147 c125 81 230 147 235 148 4 0 7 -241 7 -535z"/>
</g>
</svg>
